<svg width="30" height="30" viewBox="0 0 30 30" fill="none" xmlns="http://www.w3.org/2000/svg">
<path fill-rule="evenodd" clip-rule="evenodd" d="M11.2895 6.054C12.2493 6.00982 12.5553 6 15 6C17.4447 6 17.7507 6.01064 18.7096 6.054C19.6685 6.09736 20.3231 6.25036 20.8958 6.47209C21.4955 6.69873 22.0396 7.053 22.4896 7.51118C22.9478 7.96036 23.3013 8.50364 23.5271 9.10418C23.7496 9.67691 23.9018 10.3315 23.946 11.2887C23.9902 12.2501 24 12.5561 24 15C24 17.4447 23.9894 17.7507 23.946 18.7105C23.9026 19.6677 23.7496 20.3223 23.5271 20.895C23.3013 21.4956 22.9472 22.0398 22.4896 22.4896C22.0396 22.9478 21.4955 23.3013 20.8958 23.5271C20.3231 23.7496 19.6685 23.9018 18.7113 23.946C17.7507 23.9902 17.4447 24 15 24C12.5553 24 12.2493 23.9894 11.2895 23.946C10.3323 23.9026 9.67773 23.7496 9.105 23.5271C8.50439 23.3012 7.96022 22.9472 7.51036 22.4896C7.05249 22.0402 6.69817 21.4963 6.47209 20.8958C6.25036 20.3231 6.09818 19.6685 6.054 18.7113C6.00982 17.7499 6 17.4439 6 15C6 12.5553 6.01064 12.2493 6.054 11.2904C6.09736 10.3315 6.25036 9.67691 6.47209 9.10418C6.6985 8.5037 7.0531 7.9598 7.51118 7.51036C7.9604 7.05259 8.50402 6.69827 9.10418 6.47209C9.67691 6.25036 10.3315 6.09818 11.2887 6.054H11.2895ZM18.6368 7.674C17.6877 7.63064 17.403 7.62164 15 7.62164C12.597 7.62164 12.3123 7.63064 11.3632 7.674C10.4853 7.71409 10.0091 7.86055 9.69164 7.98409C9.27191 8.14773 8.97164 8.34164 8.65664 8.65664C8.35804 8.94713 8.12824 9.30078 7.98409 9.69164C7.86055 10.0091 7.71409 10.4853 7.674 11.3632C7.63064 12.3123 7.62164 12.597 7.62164 15C7.62164 17.403 7.63064 17.6877 7.674 18.6368C7.71409 19.5147 7.86055 19.9909 7.98409 20.3084C8.12809 20.6986 8.358 21.0529 8.65664 21.3434C8.94709 21.642 9.30136 21.8719 9.69164 22.0159C10.0091 22.1395 10.4853 22.2859 11.3632 22.326C12.3123 22.3694 12.5962 22.3784 15 22.3784C17.4038 22.3784 17.6877 22.3694 18.6368 22.326C19.5147 22.2859 19.9909 22.1395 20.3084 22.0159C20.7281 21.8523 21.0284 21.6584 21.3434 21.3434C21.642 21.0529 21.8719 20.6986 22.0159 20.3084C22.1395 19.9909 22.2859 19.5147 22.326 18.6368C22.3694 17.6877 22.3784 17.403 22.3784 15C22.3784 12.597 22.3694 12.3123 22.326 11.3632C22.2859 10.4853 22.1395 10.0091 22.0159 9.69164C21.8523 9.27191 21.6584 8.97164 21.3434 8.65664C21.0528 8.35806 20.6992 8.12826 20.3084 7.98409C19.9909 7.86055 19.5147 7.71409 18.6368 7.674V7.674ZM13.8505 17.7745C14.4924 18.0417 15.2073 18.0778 15.8729 17.8765C16.5386 17.6752 17.1137 17.2491 17.5 16.6709C17.8864 16.0927 18.06 15.3983 17.9913 14.7064C17.9226 14.0144 17.6157 13.3677 17.1232 12.8768C16.8092 12.563 16.4295 12.3228 16.0115 12.1733C15.5936 12.0238 15.1476 11.9689 14.7059 12.0125C14.2641 12.0561 13.8375 12.1971 13.4567 12.4253C13.076 12.6535 12.7506 12.9633 12.504 13.3324C12.2573 13.7015 12.0956 14.1207 12.0304 14.5598C11.9652 14.9989 11.9982 15.447 12.127 15.8718C12.2558 16.2966 12.4771 16.6876 12.7751 17.0166C13.0731 17.3456 13.4404 17.6044 13.8505 17.7745ZM11.7289 11.7289C12.1585 11.2993 12.6684 10.9586 13.2297 10.7261C13.791 10.4936 14.3925 10.374 15 10.374C15.6075 10.374 16.209 10.4936 16.7703 10.7261C17.3316 10.9586 17.8415 11.2993 18.2711 11.7289C18.7007 12.1585 19.0414 12.6684 19.2739 13.2297C19.5064 13.791 19.626 14.3925 19.626 15C19.626 15.6075 19.5064 16.209 19.2739 16.7703C19.0414 17.3316 18.7007 17.8415 18.2711 18.2711C17.4035 19.1386 16.2269 19.626 15 19.626C13.7731 19.626 12.5965 19.1386 11.7289 18.2711C10.8614 17.4035 10.374 16.2269 10.374 15C10.374 13.7731 10.8614 12.5965 11.7289 11.7289V11.7289ZM20.652 11.0629C20.7584 10.9625 20.8437 10.8417 20.9026 10.7078C20.9616 10.5739 20.993 10.4294 20.9952 10.2831C20.9973 10.1368 20.97 9.99154 20.915 9.85594C20.86 9.72033 20.7784 9.59715 20.6749 9.49367C20.5714 9.39019 20.4482 9.30853 20.3126 9.25351C20.177 9.1985 20.0317 9.17125 19.8854 9.17339C19.7391 9.17552 19.5947 9.20699 19.4607 9.26593C19.3268 9.32488 19.2061 9.4101 19.1056 9.51655C18.9103 9.72357 18.8034 9.99855 18.8076 10.2831C18.8117 10.5677 18.9266 10.8394 19.1279 11.0407C19.3291 11.2419 19.6008 11.3568 19.8854 11.361C20.17 11.3651 20.445 11.2582 20.652 11.0629V11.0629Z" fill="white"/>
</svg>
