<svg width="30" height="30" viewBox="0 0 30 30" fill="none" xmlns="http://www.w3.org/2000/svg">
<path d="M26.706 8.18952C25.871 8.55952 24.974 8.80952 24.031 8.92252C25.004 8.34031 25.7319 7.42398 26.079 6.34452C25.1648 6.88751 24.1643 7.26971 23.121 7.47452C22.4194 6.72538 21.4901 6.22884 20.4773 6.06199C19.4646 5.89514 18.4251 6.06731 17.5202 6.55177C16.6154 7.03623 15.8958 7.80588 15.4732 8.74122C15.0505 9.67656 14.9485 10.7253 15.183 11.7245C13.3307 11.6315 11.5186 11.1501 9.86442 10.3114C8.21022 9.47278 6.75084 8.29568 5.581 6.85652C5.181 7.54652 4.951 8.34652 4.951 9.19852C4.95055 9.96551 5.13943 10.7208 5.50088 11.3973C5.86232 12.0737 6.38516 12.6506 7.023 13.0765C6.28328 13.053 5.55987 12.8531 4.913 12.4935V12.5535C4.91293 13.6293 5.28503 14.6719 5.96618 15.5045C6.64733 16.3371 7.59557 16.9084 8.65 17.1215C7.96378 17.3072 7.24434 17.3346 6.546 17.2015C6.8435 18.1271 7.423 18.9365 8.20337 19.5164C8.98374 20.0963 9.92592 20.4177 10.898 20.4355C9.24783 21.7309 7.20989 22.4336 5.112 22.4305C4.74038 22.4306 4.36908 22.4089 4 22.3655C6.12948 23.7347 8.60834 24.4613 11.14 24.4585C19.71 24.4585 24.395 17.3605 24.395 11.2045C24.395 11.0045 24.39 10.8025 24.381 10.6025C25.2923 9.94349 26.0789 9.12741 26.704 8.19252L26.706 8.18952V8.18952Z" fill="white"/>
</svg>
